<svg width="103" height="66" viewBox="0 0 103 66" fill="none" xmlns="http://www.w3.org/2000/svg">
<rect x="1.5" y="1.5" width="100" height="63" rx="6.5" stroke="black" stroke-width="3"/>
<path d="M31.01 48.495C27.71 48.495 24.89 47.79 22.55 46.38C20.24 44.94 18.485 42.93 17.285 40.35C16.085 37.77 15.485 34.74 15.485 31.26C15.485 27.9 16.19 24.93 17.6 22.35C19.01 19.77 20.945 17.775 23.405 16.365C25.865 14.925 28.625 14.205 31.685 14.205C33.995 14.205 36.77 14.565 40.01 15.285L41.495 15.555L41.045 23.655H38.03L36.905 17.94C36.485 17.58 35.75 17.28 34.7 17.04C33.68 16.77 32.42 16.635 30.92 16.635C29 16.635 27.29 17.19 25.79 18.3C24.29 19.38 23.105 20.985 22.235 23.115C21.395 25.245 20.975 27.795 20.975 30.765C20.975 33.585 21.35 36.15 22.1 38.46C22.85 40.77 23.99 42.615 25.52 43.995C27.05 45.345 28.94 46.02 31.19 46.02C32.78 46.02 33.995 45.885 34.835 45.615C35.705 45.345 36.44 44.955 37.04 44.445L38.93 40.035L41.765 40.395L40.685 46.785C40.055 46.815 39.125 47.025 37.895 47.415C36.815 47.745 35.765 48 34.745 48.18C33.755 48.39 32.51 48.495 31.01 48.495Z" fill="none"/>
<path d="M77.01 48.495C73.71 48.495 70.89 47.79 68.55 46.38C66.24 44.94 64.485 42.93 63.285 40.35C62.085 37.77 61.485 34.74 61.485 31.26C61.485 27.9 62.19 24.93 63.6 22.35C65.01 19.77 66.945 17.775 69.405 16.365C71.865 14.925 74.625 14.205 77.685 14.205C79.995 14.205 82.77 14.565 86.01 15.285L87.495 15.555L87.045 23.655H84.03L82.905 17.94C82.485 17.58 81.75 17.28 80.7 17.04C79.68 16.77 78.42 16.635 76.92 16.635C75 16.635 73.29 17.19 71.79 18.3C70.29 19.38 69.105 20.985 68.235 23.115C67.395 25.245 66.975 27.795 66.975 30.765C66.975 33.585 67.35 36.15 68.1 38.46C68.85 40.77 69.99 42.615 71.52 43.995C73.05 45.345 74.94 46.02 77.19 46.02C78.78 46.02 79.995 45.885 80.835 45.615C81.705 45.345 82.44 44.955 83.04 44.445L84.93 40.035L87.765 40.395L86.685 46.785C86.055 46.815 85.125 47.025 83.895 47.415C82.815 47.745 81.765 48 80.745 48.18C79.755 48.39 78.51 48.495 77.01 48.495Z" fill="none"/>
</svg>
